<?xml version="1.0" encoding="UTF-8"?> <svg xmlns="http://www.w3.org/2000/svg" width="358" height="440" viewBox="0 0 358 440" fill="none"><g clip-path="url(#clip0_206_4867)"><path d="M328.26 70.52C326.65 73.5 325.17 77.27 321.38 77.91C314.12 79.13 307.82 72.75 300.47 76.4C298.16 77.55 295.29 81.02 294.05 83.3C291.897 87.2466 289.857 90.5333 287.93 93.16C282.69 100.3 276.75 98.81 270.78 93.89C266.58 90.42 263.04 86.32 257.57 85.96C252.35 85.62 247.66 90.11 241.93 86.84C238.03 84.62 230.34 76.29 223.1 78.8C220.4 79.7333 217.54 80.8533 214.52 82.16C209.46 84.36 206.39 83.36 200.88 81.56C196.08 79.99 193.06 79.36 188.6 80.87C187.293 81.31 184.487 82.3966 180.18 84.13C176.62 85.5633 174.133 86.2233 172.72 86.11C167.52 85.71 165.35 82.8 162.38 81.36C158.51 79.5 154.71 80.79 151.21 82.98C145.18 86.75 137.05 92.68 131.78 84.48C130.593 82.6333 129.89 81.4266 129.67 80.86C128.23 77.1 126.27 71.89 123.46 69.31C117.8 64.14 109.18 66.54 103.78 71.02C99.35 74.7 94.42 80.71 88.69 84.43C82.83 88.24 72.31 88.48 69.52 80.62C69.4267 80.3466 68.93 78.7833 68.03 75.93C65.67 68.4 56.93 69.51 51.73 73.25C50.4433 74.1766 47.7267 76.29 43.58 79.59C42.4933 80.4633 40.0033 81.55 36.11 82.85C33.2433 83.81 30.8633 85.8433 28.97 88.95C25.1 95.29 19.98 106.85 11.04 109.83C7.37 111.06 4.23 110.2 0 108.96" stroke="#EFF9FF" stroke-width="2.7"></path><path d="M340.21 81.36C340.437 87.92 338.827 93.35 335.38 97.65C329.07 105.53 317.96 104.43 313.46 95.49C311.41 91.43 312.95 86.58 309.59 82.89C309.424 82.7085 309.221 82.5654 308.994 82.4706C308.767 82.3758 308.522 82.3316 308.277 82.3411C308.031 82.3507 307.791 82.4136 307.572 82.5257C307.353 82.6378 307.161 82.7962 307.01 82.99C300.31 91.53 297.25 100.98 296.15 111.84C295.58 117.45 291.71 121.9 285.94 121.34C278.95 120.67 279.47 114.88 275.28 110.9C270.67 106.51 262.88 106.68 257.5 107.97C248.12 110.22 236.41 112.23 231.63 101.96C227.4 92.86 222.78 105.41 219.15 107.59C214.09 110.61 207.17 108.21 203.12 105.3C197 100.9 190.19 95.52 183.21 97.63C179.65 98.72 176.58 101.87 172.74 105.23C168.24 109.18 158.56 110.62 157.77 102.23C157.52 99.59 158.67 94.31 157.09 91.5C156.33 90.1334 155.307 89.8967 154.02 90.79C147.23 95.53 151.57 107.95 142.44 112.4C140.34 113.42 139.38 114.96 138.9 116.99C138.11 120.29 136.39 122.64 132.89 121.09C126.43 118.23 126.79 112.01 125.91 106.28C125.04 100.59 122.72 99.56 117.41 95.32C114.12 92.69 114.68 90.31 114.24 87.34C113.39 81.57 106.86 84.07 105.51 87.78C105.263 88.4667 104.637 90.1967 103.63 92.97C102.817 95.2034 101.96 96.6834 101.06 97.41C99.4533 98.69 97.73 98.9667 95.89 98.24C95.5633 98.1134 95.36 98.22 95.28 98.56C94.22 103.193 91.3566 105.587 86.69 105.74C82.9566 105.86 79.9566 106.143 77.69 106.59C75.0833 107.097 73.34 107.22 72.46 106.96C63.49 104.31 62.83 94.23 61.77 86.32C60.73 78.53 49.59 76.15 50.49 86.52C51.17 94.34 50.3 98.36 43.17 101.94C40.1033 103.48 37.1033 104.907 34.17 106.22C28.62 108.7 24.85 112.5 25.9 118.42C26.3733 121.107 26.7666 123.837 27.08 126.61C27.6 131.19 25.6166 133.407 21.13 133.26C16.2 133.1 9.22998 131.16 9.92998 139.03C10.16 141.53 10.74 144.45 10.53 146.67C10.0833 151.263 7.39998 154.023 2.47998 154.95" stroke="#C8E9FF" stroke-width="2.7"></path><path d="M344.83 89.6799C345.45 93.7266 345.453 96.8466 344.84 99.0399C344.573 99.9799 344.08 101.63 343.36 103.99C341.98 108.53 342.31 111.23 343.3 116.4C344.013 120.12 343.287 123.683 341.12 127.09C339.853 129.07 337.9 130.367 335.26 130.98" stroke="#6287BD" stroke-width="2.7"></path><path d="M335.26 130.98C330.807 131.18 327.837 129.493 326.35 125.92C325.67 124.3 325.027 123.213 324.42 122.66C321.46 119.98 314.07 116.85 312.19 122.47C311.43 124.72 311.23 125.75 309.37 127.04C307.43 128.39 304.62 128.38 302.96 129.15C301.9 129.643 300.893 130.433 299.94 131.52C299.22 132.353 298.707 133.45 298.4 134.81C297.567 138.537 296.877 143.037 296.33 148.31C295.92 152.26 292.95 156.86 288.3 154.62" stroke="#74A0FF" stroke-width="2.7"></path><path d="M288.3 154.62C285.52 152.62 283.977 150.113 283.67 147.1C283.21 142.54 282.6 138.113 281.84 133.82" stroke="#81AFFF" stroke-width="2.7"></path><path d="M281.84 133.82C279.787 131.14 277.1 129.363 273.78 128.49" stroke="#74A0FF" stroke-width="2.7"></path><path d="M273.78 128.49C271.78 127.117 270.527 125.317 270.02 123.09" stroke="#81AFFF" stroke-width="2.7"></path><path d="M270.02 123.09C266.13 110.76 254.61 116.27 245.82 119.09C243.307 119.903 240.637 119.66 237.81 118.36C234.86 117.01 231.74 112.35 229.06 111.18C223.88 108.93 220.53 113.64 215.84 114.84C210.593 116.187 205.677 115.623 201.09 113.15C198.44 111.72 195.53 108.85 193.39 107.28C185.2 101.26 179.45 108.82 173.68 114.16C170.46 117.14 164.26 121.2 159.37 121.42C157.177 121.52 155.777 121.417 155.17 121.11C152.51 119.78 150.08 118.24 147.95 118.34C144.76 118.49 141.72 121.04 140.52 124.26C139.947 125.807 139.323 127.34 138.65 128.86C137.32 131.87 133.96 131.62 131.6 130.2C130.92 129.793 130.013 128.827 128.88 127.3C126.953 124.72 124.683 122.553 122.07 120.8" stroke="#74A0FF" stroke-width="2.7"></path><path d="M122.07 120.8C120.057 119.26 118.62 116.967 117.76 113.92" stroke="#81AFFF" stroke-width="2.7"></path><path d="M117.76 113.92C116.68 110.047 114.637 107.627 111.63 106.66C101.49 103.4 97.63 124.88 85.79 120.3C81.32 118.56 75.4201 114.37 70.2901 118.68C66.3001 122.04 62.13 124.41 58.21 119.33C55.4834 115.79 53.5634 113.38 52.4501 112.1C49.7901 109.06 46.81 108.51 43.32 110.86C38.52 114.09 33.2501 118.77 33.5201 124.58C33.5467 125.16 33.9134 126.73 34.62 129.29C37.6 139.98 26.78 143.9 18.66 144.86C9.01005 146.01 18.03 156.75 8.05005 157.29" stroke="#74A0FF" stroke-width="2.7"></path><path d="M23.12 364.02C24.3333 364.587 25.5167 365.173 26.67 365.78C32.05 368.6 36.37 369.2 42.98 369.2C128.26 369.247 213.543 369.247 298.83 369.2C304.837 369.2 309.273 368.757 312.14 367.87C316.593 366.503 320.557 364.227 324.03 361.04C331.59 354.1 335.38 345.337 335.4 334.75C335.527 268.983 335.593 203.22 335.6 137.46" stroke="#3256BD" stroke-width="2.7"></path><path d="M335.6 137.46L335.26 130.98" stroke="#2547BD" stroke-width="2.7"></path><path d="M270.02 123.09C265.653 122.697 262.383 122.82 260.21 123.46C253.79 125.35 247.2 129.11 240.91 124.88C237.67 122.71 235.38 118.04 231.02 117.79C229.04 117.68 226.49 119.42 224.14 120.69C217.8 124.12 210.25 123.6 204.45 119.83C203.717 119.357 202.267 118.17 200.1 116.27C197.927 114.357 196.377 113.273 195.45 113.02C191.17 111.853 187.567 112.73 184.64 115.65C180.26 120.037 175.957 123.543 171.73 126.17C166.95 129.143 162.273 129.62 157.7 127.6C155.227 126.507 153.587 125.943 152.78 125.91C147.76 125.68 145.5 130.12 144.01 134.37C142.82 137.75 141.02 139.56 137.36 138.12C135.727 137.467 134.63 136.71 134.07 135.85C132.157 132.903 129.983 130.567 127.55 128.84C125.923 127.687 124.757 126.513 124.05 125.32C123.223 123.927 122.563 122.42 122.07 120.8" stroke="#446FFF" stroke-width="2.7"></path><path d="M117.76 113.92C113.547 113.347 110.303 114.303 108.03 116.79C105.877 119.143 103.643 121.643 101.33 124.29C99.53 126.343 97.3233 127.653 94.71 128.22C91.5 128.91 86.91 126.23 83.25 124.8C78.14 122.81 76.07 125.26 72.02 128.23C66.51 132.26 62.57 126.87 59.8 122.96C56.67 118.56 53.11 114.65 48.22 117.96C45.7 119.667 43.4 121.617 41.32 123.81C37.05 128.33 37.99 132.38 39.36 137.84C39.7533 139.427 39.8133 140.703 39.54 141.67C37.13 150.25 29.68 151.18 21.99 152.53C17.34 153.35 18.24 157.09 17.86 160.62C17.65 162.59 16.5 163.39 14.84 164.17C12.76 165.15 10.94 164.43 8.69997 164.81C8.35997 164.87 8.18663 165.077 8.17997 165.43L8.08997 180.04" stroke="#446FFF" stroke-width="2.7"></path><path d="M273.78 128.49C274.14 129.59 274.543 130.667 274.99 131.72C276.24 134.68 278.41 136.01 281.22 137C281.309 137.032 281.406 137.038 281.499 137.018C281.591 136.997 281.676 136.95 281.743 136.883C281.81 136.816 281.857 136.731 281.878 136.639C281.898 136.546 281.892 136.449 281.86 136.36C281.507 135.373 281.5 134.527 281.84 133.82" stroke="#446FFF" stroke-width="2.7"></path><path d="M288.3 154.62C288.747 157.593 290.003 159.863 292.07 161.43C296.72 164.94 300.36 160.09 300.85 155.86C301.377 151.287 301.983 147.067 302.67 143.2C303.19 140.22 304.26 138.39 306.79 136.9C310.48 134.71 314.82 136.52 316.42 130.79C316.88 129.137 317.447 128.097 318.12 127.67C319.44 126.843 320.717 126.56 321.95 126.82C326.65 127.8 329.93 130.523 331.79 134.99C332.31 136.243 333.58 137.067 335.6 137.46" stroke="#446FFF" stroke-width="2.7"></path><path d="M48.618 185.366C49.0548 185.387 49.4918 185.317 49.9039 185.16C50.3161 185.003 50.6954 184.762 51.0203 184.451C51.3451 184.14 51.609 183.764 51.7971 183.346C51.9851 182.927 52.0935 182.474 52.116 182.013C52.1617 181.08 51.855 180.169 51.2635 179.479C50.672 178.789 49.8442 178.377 48.962 178.334C48.5253 178.313 48.0883 178.383 47.6761 178.539C47.264 178.696 46.8846 178.937 46.5598 179.249C46.235 179.56 45.971 179.936 45.783 180.354C45.595 180.773 45.4866 181.225 45.464 181.687C45.4184 182.62 45.7251 183.531 46.3166 184.221C46.9081 184.911 47.7359 185.323 48.618 185.366Z" stroke="#A8BFFF" stroke-width="2.7"></path><path d="M306.36 182.8C306.36 182.49 306.237 182.192 306.017 181.973C305.798 181.753 305.5 181.63 305.19 181.63H304.59C304.28 181.63 303.982 181.753 303.763 181.973C303.543 182.192 303.42 182.49 303.42 182.8V183.02C303.42 183.33 303.543 183.628 303.763 183.847C303.982 184.067 304.28 184.19 304.59 184.19H305.19C305.5 184.19 305.798 184.067 306.017 183.847C306.237 183.628 306.36 183.33 306.36 183.02V182.8Z" stroke="#A8BFFF" stroke-width="2.7"></path><path d="M300.02 257.87C300.02 257.154 299.736 256.467 299.229 255.961C298.723 255.454 298.036 255.17 297.32 255.17C296.604 255.17 295.917 255.454 295.411 255.961C294.904 256.467 294.62 257.154 294.62 257.87C294.62 258.586 294.904 259.273 295.411 259.779C295.917 260.285 296.604 260.57 297.32 260.57C298.036 260.57 298.723 260.285 299.229 259.779C299.736 259.273 300.02 258.586 300.02 257.87Z" stroke="#A8BFFF" stroke-width="2.7"></path><path d="M57.7103 277.218C58.7654 277.248 59.7899 276.824 60.5585 276.041C61.3271 275.257 61.7767 274.178 61.8085 273.041C61.8402 271.904 61.4515 270.801 60.7279 269.976C60.0043 269.151 59.005 268.671 57.9499 268.642C56.8947 268.612 55.8702 269.036 55.1016 269.819C54.333 270.602 53.8834 271.681 53.8517 272.819C53.8199 273.956 54.2086 275.059 54.9322 275.884C55.6558 276.709 56.6551 277.189 57.7103 277.218Z" stroke="#A8BFFF" stroke-width="2.7"></path><path d="M260.297 286.615C260.851 286.641 261.405 286.55 261.927 286.348C262.449 286.146 262.929 285.836 263.34 285.436C263.752 285.036 264.085 284.554 264.323 284.018C264.561 283.481 264.697 282.9 264.725 282.309C264.782 281.114 264.392 279.947 263.641 279.065C262.89 278.183 261.84 277.658 260.722 277.605C260.169 277.579 259.615 277.67 259.093 277.872C258.571 278.074 258.091 278.384 257.68 278.784C257.268 279.184 256.934 279.666 256.697 280.202C256.459 280.739 256.323 281.32 256.295 281.911C256.238 283.106 256.628 284.273 257.379 285.155C258.13 286.037 259.179 286.562 260.297 286.615Z" stroke="#A8BFFF" stroke-width="2.7"></path><path d="M89.5 300.78L89.6299 299.01C89.6383 298.903 89.6042 298.796 89.535 298.714C89.4658 298.632 89.367 298.58 89.26 298.57L89.05 298.55C88.8268 298.533 88.6034 298.547 88.3926 298.591C88.1817 298.636 87.9876 298.71 87.8213 298.809C87.655 298.909 87.5198 299.031 87.4235 299.17C87.3271 299.31 87.2716 299.462 87.26 299.62L87.25 299.82C87.2369 299.977 87.268 300.136 87.3415 300.288C87.4149 300.44 87.5292 300.582 87.6778 300.706C87.8264 300.829 88.0065 300.932 88.2076 301.008C88.4087 301.085 88.627 301.133 88.85 301.15L89.0599 301.16C89.1138 301.164 89.168 301.157 89.2193 301.14C89.2706 301.124 89.3181 301.097 89.359 301.061C89.3998 301.026 89.4333 300.983 89.4575 300.935C89.4817 300.886 89.4962 300.834 89.5 300.78Z" stroke="#A8BFFF" stroke-width="2.7"></path><path d="M288.7 324.24C288.7 323.688 288.481 323.159 288.091 322.769C287.701 322.379 287.172 322.16 286.62 322.16C286.068 322.16 285.539 322.379 285.149 322.769C284.759 323.159 284.54 323.688 284.54 324.24C284.54 324.792 284.759 325.321 285.149 325.711C285.539 326.101 286.068 326.32 286.62 326.32C287.172 326.32 287.701 326.101 288.091 325.711C288.481 325.321 288.7 324.792 288.7 324.24Z" stroke="#A8BFFF" stroke-width="2.7"></path><path d="M44.5968 338.138C45.4636 338.168 46.3078 337.825 46.9437 337.185C47.5797 336.545 47.9553 335.66 47.988 334.724C48.0207 333.788 47.7077 332.879 47.1179 332.196C46.5282 331.513 45.7099 331.112 44.8432 331.082C43.9765 331.052 43.1323 331.395 42.4963 332.035C41.8604 332.675 41.4847 333.56 41.452 334.496C41.4194 335.431 41.7324 336.341 42.3221 337.024C42.9119 337.707 43.7301 338.107 44.5968 338.138Z" stroke="#A8BFFF" stroke-width="2.7"></path><path d="M128.56 347.5C128.56 346.996 128.36 346.513 128.004 346.157C127.647 345.8 127.164 345.6 126.66 345.6C126.156 345.6 125.673 345.8 125.317 346.157C124.96 346.513 124.76 346.996 124.76 347.5C124.76 348.004 124.96 348.487 125.317 348.844C125.673 349.2 126.156 349.4 126.66 349.4C127.164 349.4 127.647 349.2 128.004 348.844C128.36 348.487 128.56 348.004 128.56 347.5Z" stroke="#A8BFFF" stroke-width="2.7"></path><path d="M328.26 70.5201C326.65 73.5001 325.17 77.2701 321.38 77.9101C314.12 79.1301 307.82 72.7501 300.47 76.4001C298.16 77.5501 295.29 81.0201 294.05 83.3001C291.897 87.2468 289.857 90.5334 287.93 93.1601C282.69 100.3 276.75 98.8101 270.78 93.8901C266.58 90.4201 263.04 86.3201 257.57 85.9601C252.35 85.6201 247.66 90.1101 241.93 86.8401C238.03 84.6201 230.34 76.2901 223.1 78.8001C220.4 79.7334 217.54 80.8534 214.52 82.1601C209.46 84.3601 206.39 83.3601 200.88 81.5601C196.08 79.9901 193.06 79.3601 188.6 80.8701C187.293 81.3101 184.487 82.3968 180.18 84.1301C176.62 85.5634 174.133 86.2234 172.72 86.1101C167.52 85.7101 165.35 82.8001 162.38 81.3601C158.51 79.5001 154.71 80.7901 151.21 82.9801C145.18 86.7501 137.05 92.6801 131.78 84.4801C130.593 82.6334 129.89 81.4268 129.67 80.8601C128.23 77.1001 126.27 71.8901 123.46 69.3101C117.8 64.1401 109.18 66.5401 103.78 71.0201C99.35 74.7001 94.42 80.7101 88.69 84.4301C82.83 88.2401 72.31 88.4801 69.52 80.6201C69.4267 80.3468 68.93 78.7834 68.03 75.9301C65.67 68.4001 56.93 69.5101 51.73 73.2501C50.4433 74.1768 47.7267 76.2901 43.58 79.5901C42.4933 80.4634 40.0033 81.5501 36.11 82.8501C33.2433 83.8101 30.8633 85.8434 28.97 88.9501C25.1 95.2901 19.98 106.85 11.04 109.83C7.37 111.06 4.23 110.2 0 108.96V108.65C0.393333 104.63 1.53667 101.567 3.43 99.4601C6.46 96.1001 7.39 94.8101 8.48 90.5601C9.62 86.0934 10.32 83.5968 10.58 83.0701C13.5133 77.0768 18.23 73.1868 24.73 71.4001C31.96 69.4101 35.57 68.6301 40.84 66.2601C45.74 64.0701 49.55 61.9801 53.72 61.2501C58.2733 60.4568 62.8167 60.8001 67.35 62.2801C71.5167 63.6468 73.6067 64.3334 73.62 64.3401C79.6267 65.5868 85.5767 65.1368 91.47 62.9901C98.93 60.2801 105.88 57.1901 113.71 55.6101C127.96 52.7301 137.67 64.5801 148.95 67.7301C153.95 69.1301 159.07 69.3001 164.31 68.2401C165.43 68.0134 168.567 67.2268 173.72 65.8801C178.26 64.7001 182.94 64.3001 188.14 65.1101C193.75 65.9901 203.15 67.3601 208.34 65.3801C213.733 63.3334 217.23 62.1434 218.83 61.8101C223.13 60.9168 227.81 61.6701 232.87 64.0701C239.097 67.0234 243.523 69.0668 246.15 70.2001C251.577 72.5468 256.837 72.5301 261.93 70.1501C265.61 68.4368 268.647 67.4668 271.04 67.2401C272.347 67.1134 275.21 67.3901 279.63 68.0701C285.8 69.0201 291.4 69.8701 296.97 66.9501C304.1 63.2201 308.35 60.0701 314.56 60.9901C318.74 61.6001 324.72 67.4001 328.26 70.5201Z" fill="white"></path><path d="M328.26 70.5202C333.1 73.9402 337.083 77.5535 340.21 81.3602C340.437 87.9202 338.827 93.3502 335.38 97.6502C329.07 105.53 317.96 104.43 313.46 95.4902C311.41 91.4302 312.95 86.5802 309.59 82.8902C309.424 82.7087 309.221 82.5656 308.994 82.4708C308.767 82.376 308.522 82.3318 308.277 82.3413C308.031 82.3508 307.791 82.4138 307.572 82.5259C307.353 82.638 307.161 82.7964 307.01 82.9902C300.31 91.5302 297.25 100.98 296.15 111.84C295.58 117.45 291.71 121.9 285.94 121.34C278.95 120.67 279.47 114.88 275.28 110.9C270.67 106.51 262.88 106.68 257.5 107.97C248.12 110.22 236.41 112.23 231.63 101.96C227.4 92.8602 222.78 105.41 219.15 107.59C214.09 110.61 207.17 108.21 203.12 105.3C197 100.9 190.19 95.5202 183.21 97.6302C179.65 98.7202 176.58 101.87 172.74 105.23C168.24 109.18 158.56 110.62 157.77 102.23C157.52 99.5902 158.67 94.3102 157.09 91.5002C156.33 90.1335 155.307 89.8969 154.02 90.7902C147.23 95.5302 151.57 107.95 142.44 112.4C140.34 113.42 139.38 114.96 138.9 116.99C138.11 120.29 136.39 122.64 132.89 121.09C126.43 118.23 126.79 112.01 125.91 106.28C125.04 100.59 122.72 99.5602 117.41 95.3202C114.12 92.6902 114.68 90.3102 114.24 87.3402C113.39 81.5702 106.86 84.0702 105.51 87.7802C105.263 88.4669 104.637 90.1969 103.63 92.9702C102.817 95.2035 101.96 96.6835 101.06 97.4102C99.4533 98.6902 97.73 98.9669 95.89 98.2402C95.5633 98.1135 95.36 98.2202 95.28 98.5602C94.22 103.194 91.3567 105.587 86.69 105.74C82.9567 105.86 79.9567 106.144 77.69 106.59C75.0833 107.097 73.34 107.22 72.46 106.96C63.49 104.31 62.83 94.2302 61.77 86.3202C60.73 78.5302 49.59 76.1502 50.49 86.5202C51.17 94.3402 50.3 98.3602 43.17 101.94C40.1033 103.48 37.1033 104.907 34.17 106.22C28.62 108.7 24.85 112.5 25.9 118.42C26.3733 121.107 26.7667 123.837 27.08 126.61C27.6 131.19 25.6167 133.407 21.13 133.26C16.2 133.1 9.23 131.16 9.93 139.03C10.16 141.53 10.74 144.45 10.53 146.67C10.0833 151.264 7.4 154.024 2.48 154.95C0.62 150.237 0.203333 145.004 1.23 139.25C2.04 134.73 2.47 130.06 1.86 125.25C1.33333 121.084 0.713333 116.934 0 112.8V108.96C4.23 110.2 7.37 111.06 11.04 109.83C19.98 106.85 25.1 95.2902 28.97 88.9502C30.8633 85.8435 33.2433 83.8102 36.11 82.8502C40.0033 81.5502 42.4933 80.4635 43.58 79.5902C47.7267 76.2902 50.4433 74.1769 51.73 73.2502C56.93 69.5102 65.67 68.4002 68.03 75.9302C68.93 78.7835 69.4267 80.3469 69.52 80.6202C72.31 88.4802 82.83 88.2402 88.69 84.4302C94.42 80.7102 99.35 74.7002 103.78 71.0202C109.18 66.5402 117.8 64.1402 123.46 69.3102C126.27 71.8902 128.23 77.1002 129.67 80.8602C129.89 81.4269 130.593 82.6335 131.78 84.4802C137.05 92.6802 145.18 86.7502 151.21 82.9802C154.71 80.7902 158.51 79.5002 162.38 81.3602C165.35 82.8002 167.52 85.7102 172.72 86.1102C174.133 86.2235 176.62 85.5635 180.18 84.1302C184.487 82.3969 187.293 81.3102 188.6 80.8702C193.06 79.3602 196.08 79.9902 200.88 81.5602C206.39 83.3602 209.46 84.3602 214.52 82.1602C217.54 80.8535 220.4 79.7335 223.1 78.8002C230.34 76.2902 238.03 84.6202 241.93 86.8402C247.66 90.1102 252.35 85.6202 257.57 85.9602C263.04 86.3202 266.58 90.4202 270.78 93.8902C276.75 98.8102 282.69 100.3 287.93 93.1602C289.857 90.5335 291.897 87.2469 294.05 83.3002C295.29 81.0202 298.16 77.5502 300.47 76.4002C307.82 72.7502 314.12 79.1302 321.38 77.9102C325.17 77.2702 326.65 73.5002 328.26 70.5202Z" fill="#DEF2FF"></path><path d="M340.21 81.36C342.417 84.34 343.957 87.1134 344.83 89.68C345.45 93.7267 345.453 96.8467 344.84 99.04C344.573 99.98 344.08 101.63 343.36 103.99C341.98 108.53 342.31 111.23 343.3 116.4C344.013 120.12 343.287 123.683 341.12 127.09C339.853 129.07 337.9 130.367 335.26 130.98C330.807 131.18 327.837 129.493 326.35 125.92C325.67 124.3 325.027 123.213 324.42 122.66C321.46 119.98 314.07 116.85 312.19 122.47C311.43 124.72 311.23 125.75 309.37 127.04C307.43 128.39 304.62 128.38 302.96 129.15C301.9 129.643 300.893 130.433 299.94 131.52C299.22 132.353 298.707 133.45 298.4 134.81C297.567 138.537 296.877 143.037 296.33 148.31C295.92 152.26 292.95 156.86 288.3 154.62C285.52 152.62 283.977 150.113 283.67 147.1C283.21 142.54 282.6 138.113 281.84 133.82C279.787 131.14 277.1 129.363 273.78 128.49C271.78 127.117 270.527 125.317 270.02 123.09C266.13 110.76 254.61 116.27 245.82 119.09C243.307 119.903 240.637 119.66 237.81 118.36C234.86 117.01 231.74 112.35 229.06 111.18C223.88 108.93 220.53 113.64 215.84 114.84C210.593 116.187 205.677 115.623 201.09 113.15C198.44 111.72 195.53 108.85 193.39 107.28C185.2 101.26 179.45 108.82 173.68 114.16C170.46 117.14 164.26 121.2 159.37 121.42C157.177 121.52 155.777 121.417 155.17 121.11C152.51 119.78 150.08 118.24 147.95 118.34C144.76 118.49 141.72 121.04 140.52 124.26C139.947 125.807 139.323 127.34 138.65 128.86C137.32 131.87 133.96 131.62 131.6 130.2C130.92 129.793 130.013 128.827 128.88 127.3C126.953 124.72 124.683 122.553 122.07 120.8C120.057 119.26 118.62 116.967 117.76 113.92C116.68 110.047 114.637 107.627 111.63 106.66C101.49 103.4 97.63 124.88 85.79 120.3C81.32 118.56 75.42 114.37 70.29 118.68C66.3 122.04 62.13 124.41 58.21 119.33C55.4833 115.79 53.5633 113.38 52.45 112.1C49.79 109.06 46.81 108.51 43.32 110.86C38.52 114.09 33.25 118.77 33.52 124.58C33.5466 125.16 33.9133 126.73 34.62 129.29C37.6 139.98 26.78 143.9 18.66 144.86C9.00998 146.01 18.03 156.75 8.04998 157.29C5.80331 157.283 3.94665 156.503 2.47998 154.95C7.39998 154.023 10.0833 151.263 10.53 146.67C10.74 144.45 10.16 141.53 9.92998 139.03C9.22998 131.16 16.2 133.1 21.13 133.26C25.6166 133.407 27.6 131.19 27.08 126.61C26.7666 123.837 26.3733 121.107 25.9 118.42C24.85 112.5 28.62 108.7 34.17 106.22C37.1033 104.907 40.1033 103.48 43.17 101.94C50.3 98.36 51.17 94.34 50.49 86.52C49.59 76.15 60.73 78.53 61.77 86.32C62.83 94.23 63.49 104.31 72.46 106.96C73.34 107.22 75.0833 107.097 77.69 106.59C79.9566 106.143 82.9566 105.86 86.69 105.74C91.3566 105.587 94.22 103.193 95.28 98.56C95.36 98.22 95.5633 98.1134 95.89 98.24C97.73 98.9667 99.4533 98.69 101.06 97.41C101.96 96.6834 102.817 95.2034 103.63 92.97C104.637 90.1967 105.263 88.4667 105.51 87.78C106.86 84.07 113.39 81.57 114.24 87.34C114.68 90.31 114.12 92.69 117.41 95.32C122.72 99.56 125.04 100.59 125.91 106.28C126.79 112.01 126.43 118.23 132.89 121.09C136.39 122.64 138.11 120.29 138.9 116.99C139.38 114.96 140.34 113.42 142.44 112.4C151.57 107.95 147.23 95.53 154.02 90.79C155.307 89.8967 156.33 90.1334 157.09 91.5C158.67 94.31 157.52 99.59 157.77 102.23C158.56 110.62 168.24 109.18 172.74 105.23C176.58 101.87 179.65 98.72 183.21 97.63C190.19 95.52 197 100.9 203.12 105.3C207.17 108.21 214.09 110.61 219.15 107.59C222.78 105.41 227.4 92.86 231.63 101.96C236.41 112.23 248.12 110.22 257.5 107.97C262.88 106.68 270.67 106.51 275.28 110.9C279.47 114.88 278.95 120.67 285.94 121.34C291.71 121.9 295.58 117.45 296.15 111.84C297.25 100.98 300.31 91.53 307.01 82.99C307.161 82.7962 307.353 82.6378 307.572 82.5257C307.791 82.4136 308.031 82.3507 308.277 82.3411C308.522 82.3316 308.767 82.3758 308.994 82.4706C309.221 82.5654 309.424 82.7085 309.59 82.89C312.95 86.58 311.41 91.43 313.46 95.49C317.96 104.43 329.07 105.53 335.38 97.65C338.827 93.35 340.437 87.92 340.21 81.36Z" fill="#B1E0FF"></path><path d="M23.12 364.02C24.3333 364.587 25.5167 365.174 26.67 365.78C32.05 368.6 36.37 369.2 42.98 369.2C128.26 369.247 213.543 369.247 298.83 369.2C304.837 369.2 309.273 368.757 312.14 367.87C316.593 366.504 320.557 364.227 324.03 361.04C331.59 354.1 335.38 345.337 335.4 334.75C335.527 268.984 335.593 203.22 335.6 137.46L335.26 130.98C337.9 130.367 339.853 129.07 341.12 127.09C343.287 123.684 344.013 120.12 343.3 116.4C342.31 111.23 341.98 108.53 343.36 103.99C344.08 101.63 344.573 99.9802 344.84 99.0402C345.453 96.8468 345.45 93.7268 344.83 89.6802C352.45 95.2002 359.11 104.12 357.16 113.88C356.967 114.854 356.097 117.914 354.55 123.06C353.55 126.38 355.92 131.36 355.79 134.49C355.563 140.164 353.04 144.19 348.22 146.57C347.927 146.717 347.803 146.957 347.85 147.29C348.82 153.87 347.68 161.68 347.69 166.75C347.71 287.997 347.713 349.174 347.7 350.28C347.53 365.39 338.45 379.57 323.51 383.7C320.71 384.467 316.497 384.854 310.87 384.86C224.583 384.867 138.293 384.867 52 384.86C45.9 384.86 40.0633 382.834 34.49 378.78C29.29 375 25.5 370.08 23.12 364.02Z" fill="white"></path><path d="M270.02 123.09C265.653 122.697 262.383 122.82 260.21 123.46C253.79 125.35 247.2 129.11 240.91 124.88C237.67 122.71 235.38 118.04 231.02 117.79C229.04 117.68 226.49 119.42 224.14 120.69C217.8 124.12 210.25 123.6 204.45 119.83C203.717 119.357 202.267 118.17 200.1 116.27C197.927 114.357 196.377 113.273 195.45 113.02C191.17 111.853 187.567 112.73 184.64 115.65C180.26 120.037 175.957 123.543 171.73 126.17C166.95 129.143 162.273 129.62 157.7 127.6C155.227 126.507 153.587 125.943 152.78 125.91C147.76 125.68 145.5 130.12 144.01 134.37C142.82 137.75 141.02 139.56 137.36 138.12C135.727 137.467 134.63 136.71 134.07 135.85C132.157 132.903 129.983 130.567 127.55 128.84C125.923 127.687 124.757 126.513 124.05 125.32C123.223 123.927 122.563 122.42 122.07 120.8C124.683 122.553 126.953 124.72 128.88 127.3C130.013 128.827 130.92 129.793 131.6 130.2C133.96 131.62 137.32 131.87 138.65 128.86C139.323 127.34 139.947 125.807 140.52 124.26C141.72 121.04 144.76 118.49 147.95 118.34C150.08 118.24 152.51 119.78 155.17 121.11C155.777 121.417 157.177 121.52 159.37 121.42C164.26 121.2 170.46 117.14 173.68 114.16C179.45 108.82 185.2 101.26 193.39 107.28C195.53 108.85 198.44 111.72 201.09 113.15C205.677 115.623 210.593 116.187 215.84 114.84C220.53 113.64 223.88 108.93 229.06 111.18C231.74 112.35 234.86 117.01 237.81 118.36C240.637 119.66 243.307 119.903 245.82 119.09C254.61 116.27 266.13 110.76 270.02 123.09Z" fill="#091A4B"></path><path d="M117.76 113.92C113.547 113.347 110.303 114.304 108.03 116.79C105.877 119.144 103.643 121.644 101.33 124.29C99.53 126.344 97.3234 127.654 94.71 128.22C91.5 128.91 86.91 126.23 83.25 124.8C78.14 122.81 76.07 125.26 72.02 128.23C66.51 132.26 62.57 126.87 59.8 122.96C56.67 118.56 53.1101 114.65 48.2201 117.96C45.7001 119.667 43.4 121.617 41.32 123.81C37.05 128.33 37.9901 132.38 39.3601 137.84C39.7534 139.427 39.8134 140.704 39.5401 141.67C37.1301 150.25 29.68 151.18 21.99 152.53C17.34 153.35 18.24 157.09 17.86 160.62C17.65 162.59 16.5 163.39 14.84 164.17C12.76 165.15 10.94 164.43 8.70005 164.81C8.36005 164.87 8.18672 165.077 8.18005 165.43L8.09005 180.04L8.05005 157.29C18.03 156.75 9.01005 146.01 18.66 144.86C26.78 143.9 37.6 139.98 34.62 129.29C33.9134 126.73 33.5467 125.16 33.5201 124.58C33.2501 118.77 38.52 114.09 43.32 110.86C46.81 108.51 49.7901 109.06 52.4501 112.1C53.5634 113.38 55.4834 115.79 58.21 119.33C62.13 124.41 66.3001 122.04 70.2901 118.68C75.4201 114.37 81.32 118.56 85.79 120.3C97.63 124.88 101.49 103.4 111.63 106.66C114.637 107.627 116.68 110.047 117.76 113.92Z" fill="#091A4B"></path><path d="M270.02 123.09C270.527 125.317 271.78 127.117 273.78 128.49C274.14 129.59 274.543 130.667 274.99 131.72C276.24 134.68 278.41 136.01 281.22 137C281.309 137.032 281.406 137.038 281.499 137.018C281.591 136.997 281.676 136.95 281.743 136.883C281.81 136.816 281.857 136.731 281.878 136.639C281.898 136.546 281.892 136.449 281.86 136.36C281.507 135.373 281.5 134.527 281.84 133.82C282.6 138.113 283.21 142.54 283.67 147.1C283.977 150.113 285.52 152.62 288.3 154.62C288.747 157.593 290.003 159.863 292.07 161.43C296.72 164.94 300.36 160.09 300.85 155.86C301.377 151.287 301.983 147.067 302.67 143.2C303.19 140.22 304.26 138.39 306.79 136.9C310.48 134.71 314.82 136.52 316.42 130.79C316.88 129.137 317.447 128.097 318.12 127.67C319.44 126.843 320.717 126.56 321.95 126.82C326.65 127.8 329.93 130.523 331.79 134.99C332.31 136.243 333.58 137.067 335.6 137.46C335.593 203.22 335.527 268.983 335.4 334.75C335.38 345.337 331.59 354.1 324.03 361.04C320.557 364.227 316.593 366.503 312.14 367.87C309.273 368.757 304.837 369.2 298.83 369.2C213.543 369.247 128.26 369.247 42.9799 369.2C36.3699 369.2 32.0499 368.6 26.6699 365.78C25.5166 365.173 24.3333 364.587 23.1199 364.02C16.3133 358.907 11.7833 352.47 9.52995 344.71C8.57661 341.397 8.09661 336.247 8.08995 329.26C8.06328 279.52 8.06328 229.78 8.08995 180.04L8.17995 165.43C8.18661 165.077 8.35995 164.87 8.69995 164.81C10.9399 164.43 12.7599 165.15 14.8399 164.17C16.4999 163.39 17.6499 162.59 17.8599 160.62C18.2399 157.09 17.3399 153.35 21.9899 152.53C29.6799 151.18 37.1299 150.25 39.5399 141.67C39.8133 140.703 39.7533 139.427 39.3599 137.84C37.9899 132.38 37.0499 128.33 41.3199 123.81C43.3999 121.617 45.6999 119.667 48.2199 117.96C53.1099 114.65 56.6699 118.56 59.7999 122.96C62.5699 126.87 66.5099 132.26 72.0199 128.23C76.0699 125.26 78.1399 122.81 83.2499 124.8C86.9099 126.23 91.4999 128.91 94.7099 128.22C97.3233 127.653 99.5299 126.343 101.33 124.29C103.643 121.643 105.877 119.143 108.03 116.79C110.303 114.303 113.547 113.347 117.76 113.92C118.62 116.967 120.057 119.26 122.07 120.8C122.563 122.42 123.223 123.927 124.05 125.32C124.757 126.513 125.923 127.687 127.55 128.84C129.983 130.567 132.157 132.903 134.07 135.85C134.63 136.71 135.727 137.467 137.36 138.12C141.02 139.56 142.82 137.75 144.01 134.37C145.5 130.12 147.76 125.68 152.78 125.91C153.587 125.943 155.227 126.507 157.7 127.6C162.273 129.62 166.95 129.143 171.73 126.17C175.957 123.543 180.26 120.037 184.64 115.65C187.567 112.73 191.17 111.853 195.45 113.02C196.377 113.273 197.927 114.357 200.1 116.27C202.267 118.17 203.717 119.357 204.45 119.83C210.25 123.6 217.8 124.12 224.14 120.69C226.49 119.42 229.04 117.68 231.02 117.79C235.38 118.04 237.67 122.71 240.91 124.88C247.2 129.11 253.79 125.35 260.21 123.46C262.383 122.82 265.653 122.697 270.02 123.09ZM48.6179 185.366C49.0547 185.387 49.4917 185.317 49.9039 185.161C50.316 185.004 50.6954 184.763 51.0202 184.451C51.345 184.14 51.6089 183.764 51.797 183.346C51.985 182.927 52.0934 182.474 52.1159 182.013C52.1616 181.08 51.8549 180.169 51.2634 179.479C50.6719 178.789 49.8441 178.377 48.9619 178.334C48.5252 178.313 48.0882 178.383 47.676 178.54C47.2639 178.697 46.8845 178.938 46.5597 179.249C46.2349 179.56 45.9709 179.936 45.7829 180.354C45.5949 180.773 45.4865 181.226 45.4639 181.687C45.4183 182.62 45.725 183.531 46.3165 184.221C46.908 184.911 47.7358 185.323 48.6179 185.366ZM306.36 182.8C306.36 182.49 306.237 182.192 306.017 181.973C305.798 181.753 305.5 181.63 305.19 181.63H304.59C304.28 181.63 303.982 181.753 303.763 181.973C303.543 182.192 303.42 182.49 303.42 182.8V183.02C303.42 183.33 303.543 183.628 303.763 183.847C303.982 184.067 304.28 184.19 304.59 184.19H305.19C305.5 184.19 305.798 184.067 306.017 183.847C306.237 183.628 306.36 183.33 306.36 183.02V182.8ZM300.02 257.87C300.02 257.154 299.735 256.467 299.229 255.961C298.723 255.455 298.036 255.17 297.32 255.17C296.604 255.17 295.917 255.455 295.411 255.961C294.904 256.467 294.62 257.154 294.62 257.87C294.62 258.586 294.904 259.273 295.411 259.779C295.917 260.286 296.604 260.57 297.32 260.57C298.036 260.57 298.723 260.286 299.229 259.779C299.735 259.273 300.02 258.586 300.02 257.87ZM57.7101 277.218C58.7653 277.248 59.7898 276.824 60.5584 276.041C61.327 275.258 61.7766 274.179 61.8083 273.041C61.8401 271.904 61.4514 270.801 60.7278 269.976C60.0042 269.151 59.0049 268.671 57.9497 268.642C56.8946 268.612 55.8701 269.036 55.1015 269.819C54.3329 270.603 53.8833 271.682 53.8515 272.819C53.8198 273.956 54.2085 275.059 54.9321 275.884C55.6557 276.709 56.655 277.189 57.7101 277.218ZM260.297 286.615C260.851 286.641 261.405 286.551 261.927 286.348C262.449 286.146 262.929 285.836 263.34 285.436C263.752 285.036 264.085 284.554 264.323 284.018C264.561 283.481 264.697 282.901 264.725 282.309C264.782 281.114 264.392 279.947 263.641 279.065C262.89 278.183 261.84 277.658 260.722 277.605C260.169 277.579 259.615 277.67 259.093 277.872C258.571 278.074 258.091 278.384 257.68 278.784C257.268 279.184 256.934 279.666 256.697 280.202C256.459 280.739 256.323 281.32 256.295 281.911C256.238 283.106 256.628 284.273 257.379 285.155C258.13 286.037 259.179 286.562 260.297 286.615ZM89.4999 300.78L89.6299 299.01C89.6383 298.903 89.6042 298.797 89.535 298.714C89.4658 298.632 89.367 298.58 89.2599 298.57L89.0499 298.55C88.8268 298.533 88.6034 298.547 88.3926 298.591C88.1817 298.636 87.9876 298.71 87.8213 298.809C87.655 298.909 87.5198 299.032 87.4235 299.171C87.3271 299.31 87.2716 299.463 87.2599 299.62L87.2499 299.82C87.2369 299.977 87.268 300.137 87.3415 300.289C87.4149 300.441 87.5292 300.583 87.6778 300.706C87.8264 300.83 88.0065 300.932 88.2076 301.009C88.4087 301.085 88.627 301.133 88.8499 301.15L89.0599 301.16C89.1138 301.164 89.168 301.158 89.2193 301.141C89.2706 301.124 89.3181 301.097 89.3589 301.062C89.3998 301.026 89.4333 300.983 89.4575 300.935C89.4817 300.887 89.4961 300.834 89.4999 300.78ZM288.7 324.24C288.7 323.688 288.481 323.159 288.091 322.769C287.701 322.379 287.172 322.16 286.62 322.16C286.068 322.16 285.539 322.379 285.149 322.769C284.759 323.159 284.54 323.688 284.54 324.24C284.54 324.792 284.759 325.321 285.149 325.711C285.539 326.101 286.068 326.32 286.62 326.32C287.172 326.32 287.701 326.101 288.091 325.711C288.481 325.321 288.7 324.792 288.7 324.24ZM44.5967 338.138C45.4635 338.168 46.3077 337.826 46.9436 337.185C47.5796 336.545 47.9553 335.66 47.9879 334.724C48.0206 333.789 47.7076 332.879 47.1179 332.196C46.5281 331.513 45.7099 331.113 44.8431 331.082C43.9764 331.052 43.1322 331.395 42.4962 332.035C41.8603 332.675 41.4846 333.56 41.4519 334.496C41.4193 335.432 41.7323 336.341 42.322 337.024C42.9118 337.707 43.73 338.108 44.5967 338.138ZM128.56 347.5C128.56 346.996 128.36 346.513 128.003 346.157C127.647 345.8 127.164 345.6 126.66 345.6C126.156 345.6 125.673 345.8 125.316 346.157C124.96 346.513 124.76 346.996 124.76 347.5C124.76 348.004 124.96 348.487 125.316 348.844C125.673 349.2 126.156 349.4 126.66 349.4C127.164 349.4 127.647 349.2 128.003 348.844C128.36 348.487 128.56 348.004 128.56 347.5Z" fill="#B3E5FE"></path><path d="M335.26 130.98L335.6 137.46C333.58 137.067 332.31 136.243 331.79 134.99C329.93 130.523 326.65 127.8 321.95 126.82C320.717 126.56 319.44 126.843 318.12 127.67C317.447 128.097 316.88 129.137 316.42 130.79C314.82 136.52 310.48 134.71 306.79 136.9C304.26 138.39 303.19 140.22 302.67 143.2C301.983 147.067 301.377 151.287 300.85 155.86C300.36 160.09 296.72 164.94 292.07 161.43C290.003 159.863 288.747 157.593 288.3 154.62C292.95 156.86 295.92 152.26 296.33 148.31C296.877 143.037 297.567 138.537 298.4 134.81C298.707 133.45 299.22 132.353 299.94 131.52C300.893 130.433 301.9 129.643 302.96 129.15C304.62 128.38 307.43 128.39 309.37 127.04C311.23 125.75 311.43 124.72 312.19 122.47C314.07 116.85 321.46 119.98 324.42 122.66C325.027 123.213 325.67 124.3 326.35 125.92C327.837 129.493 330.807 131.18 335.26 130.98Z" fill="#091A4B"></path><path d="M273.78 128.49C277.1 129.363 279.787 131.14 281.84 133.82C281.5 134.527 281.507 135.373 281.86 136.36C281.892 136.449 281.898 136.546 281.878 136.639C281.857 136.731 281.81 136.816 281.743 136.883C281.676 136.95 281.591 136.997 281.499 137.018C281.406 137.038 281.309 137.032 281.22 137C278.41 136.01 276.24 134.68 274.99 131.72C274.543 130.667 274.14 129.59 273.78 128.49Z" fill="#091A4B"></path><path d="M48.618 185.366C47.7359 185.323 46.9081 184.911 46.3166 184.221C45.7251 183.531 45.4184 182.62 45.464 181.687C45.4866 181.225 45.595 180.773 45.783 180.354C45.971 179.936 46.235 179.56 46.5598 179.249C46.8846 178.937 47.264 178.696 47.6761 178.539C48.0883 178.383 48.5253 178.313 48.962 178.334C49.8442 178.377 50.672 178.789 51.2635 179.479C51.855 180.169 52.1617 181.08 52.116 182.013C52.0935 182.474 51.9851 182.927 51.7971 183.346C51.609 183.764 51.3451 184.14 51.0203 184.451C50.6954 184.762 50.3161 185.003 49.9039 185.16C49.4918 185.317 49.0548 185.387 48.618 185.366Z" fill="#DEF2FF"></path><path d="M306.36 183.02C306.36 183.33 306.237 183.628 306.017 183.847C305.798 184.067 305.5 184.19 305.19 184.19H304.59C304.28 184.19 303.982 184.067 303.763 183.847C303.543 183.628 303.42 183.33 303.42 183.02V182.8C303.42 182.49 303.543 182.192 303.763 181.973C303.982 181.753 304.28 181.63 304.59 181.63H305.19C305.5 181.63 305.798 181.753 306.017 181.973C306.237 182.192 306.36 182.49 306.36 182.8V183.02Z" fill="#DEF2FF"></path><path d="M300.02 257.87C300.02 258.586 299.736 259.273 299.229 259.779C298.723 260.285 298.036 260.57 297.32 260.57C296.604 260.57 295.917 260.285 295.411 259.779C294.904 259.273 294.62 258.586 294.62 257.87C294.62 257.154 294.904 256.467 295.411 255.961C295.917 255.454 296.604 255.17 297.32 255.17C298.036 255.17 298.723 255.454 299.229 255.961C299.736 256.467 300.02 257.154 300.02 257.87Z" fill="#DEF2FF"></path><path d="M57.7103 277.218C56.6551 277.189 55.6558 276.709 54.9322 275.884C54.2086 275.059 53.8199 273.956 53.8517 272.819C53.8834 271.681 54.333 270.602 55.1016 269.819C55.8702 269.036 56.8947 268.612 57.9499 268.642C59.005 268.671 60.0043 269.151 60.7279 269.976C61.4515 270.801 61.8402 271.904 61.8085 273.041C61.7767 274.178 61.3271 275.257 60.5585 276.041C59.7899 276.824 58.7654 277.248 57.7103 277.218Z" fill="#DEF2FF"></path><path d="M260.297 286.615C259.179 286.562 258.13 286.037 257.379 285.155C256.628 284.273 256.238 283.106 256.295 281.911C256.323 281.32 256.459 280.739 256.697 280.202C256.934 279.666 257.268 279.184 257.68 278.784C258.091 278.384 258.571 278.074 259.093 277.872C259.615 277.67 260.169 277.579 260.722 277.605C261.84 277.658 262.89 278.183 263.641 279.065C264.392 279.947 264.782 281.114 264.725 282.309C264.697 282.9 264.561 283.481 264.323 284.018C264.085 284.554 263.752 285.036 263.34 285.436C262.929 285.836 262.449 286.146 261.927 286.348C261.405 286.55 260.851 286.641 260.297 286.615Z" fill="#DEF2FF"></path><path d="M89.5001 300.78C89.4963 300.834 89.4819 300.886 89.4577 300.935C89.4335 300.983 89.4 301.026 89.3591 301.061C89.3182 301.097 89.2707 301.124 89.2194 301.14C89.1681 301.157 89.1139 301.164 89.0601 301.16L88.8501 301.15C88.6271 301.133 88.4089 301.085 88.2077 301.008C88.0066 300.932 87.8265 300.829 87.6779 300.706C87.5293 300.582 87.415 300.44 87.3416 300.288C87.2682 300.136 87.2371 299.977 87.2501 299.82L87.2601 299.62C87.2717 299.462 87.3273 299.31 87.4236 299.17C87.5199 299.031 87.6551 298.909 87.8214 298.809C87.9877 298.71 88.1819 298.636 88.3927 298.591C88.6036 298.547 88.827 298.533 89.0501 298.55L89.2601 298.57C89.3671 298.58 89.4659 298.632 89.5351 298.714C89.6043 298.796 89.6384 298.903 89.6301 299.01L89.5001 300.78Z" fill="#DEF2FF"></path><path d="M288.7 324.24C288.7 324.792 288.481 325.321 288.091 325.711C287.701 326.101 287.172 326.32 286.62 326.32C286.068 326.32 285.539 326.101 285.149 325.711C284.759 325.321 284.54 324.792 284.54 324.24C284.54 323.688 284.759 323.159 285.149 322.769C285.539 322.379 286.068 322.16 286.62 322.16C287.172 322.16 287.701 322.379 288.091 322.769C288.481 323.159 288.7 323.688 288.7 324.24Z" fill="#DEF2FF"></path><path d="M44.5968 338.138C43.7301 338.107 42.9119 337.707 42.3221 337.024C41.7324 336.341 41.4194 335.431 41.452 334.496C41.4847 333.56 41.8604 332.675 42.4963 332.035C43.1323 331.395 43.9765 331.052 44.8432 331.082C45.7099 331.112 46.5282 331.513 47.1179 332.196C47.7077 332.879 48.0207 333.788 47.988 334.724C47.9553 335.66 47.5797 336.545 46.9437 337.185C46.3078 337.825 45.4636 338.168 44.5968 338.138Z" fill="#DEF2FF"></path><path d="M128.56 347.5C128.56 348.004 128.36 348.487 128.004 348.843C127.647 349.2 127.164 349.4 126.66 349.4C126.156 349.4 125.673 349.2 125.317 348.843C124.96 348.487 124.76 348.004 124.76 347.5C124.76 346.996 124.96 346.513 125.317 346.156C125.673 345.8 126.156 345.6 126.66 345.6C127.164 345.6 127.647 345.8 128.004 346.156C128.36 346.513 128.56 346.996 128.56 347.5Z" fill="#DEF2FF"></path></g><defs><clipPath id="clip0_206_4867"><rect width="358" height="440" fill="white"></rect></clipPath></defs></svg> 