<?xml version="1.0" encoding="UTF-8"?> <svg xmlns="http://www.w3.org/2000/svg" width="152" height="152" viewBox="0 0 152 152" fill="none"><path d="M116.422 0.363281H36.3015C16.7797 0.363281 0.954102 16.1889 0.954102 35.7107V115.832C0.954102 135.353 16.7797 151.179 36.3015 151.179H116.422C135.944 151.179 151.77 135.353 151.77 115.832V35.7107C151.77 16.1889 135.944 0.363281 116.422 0.363281Z" fill="url(#paint0_radial_210_11941)"></path><path d="M36.3015 2.86328H116.422C134.563 2.86328 149.27 17.5696 149.27 35.7107V115.832C149.27 133.973 134.563 148.679 116.422 148.679H36.3015C18.1604 148.679 3.4541 133.973 3.4541 115.832V35.7107C3.4541 17.5696 18.1604 2.86328 36.3015 2.86328Z" fill="url(#paint1_radial_210_11941)" stroke="white" stroke-width="5"></path><path d="M76.3669 16.8589C60.3675 16.8589 58.3591 16.929 52.0756 17.2147C45.8037 17.5022 41.5226 18.4949 37.7769 19.9518C33.9017 21.4564 30.615 23.4694 27.3406 26.745C24.0633 30.0199 22.0503 33.3066 20.5409 37.1801C19.0799 40.9269 18.0861 45.2099 17.8039 51.4787C17.5229 57.7629 17.4492 59.7718 17.4492 75.7719C17.4492 91.7719 17.5199 93.7737 17.805 100.057C18.0937 106.329 19.0864 110.61 20.5421 114.356C22.0479 118.231 24.061 121.518 27.3365 124.792C30.6102 128.07 33.897 130.087 37.7693 131.592C41.5179 133.049 45.7996 134.041 52.0703 134.329C58.3544 134.615 60.361 134.685 76.3598 134.685C92.361 134.685 94.3629 134.615 100.646 134.329C106.918 134.041 111.204 133.049 114.953 131.592C118.826 130.087 122.108 128.07 125.381 124.792C128.659 121.518 130.671 118.231 132.181 114.358C133.629 110.61 134.624 106.328 134.918 100.058C135.2 93.7749 135.274 91.7719 135.274 75.7719C135.274 59.7718 135.2 57.7641 134.918 51.4799C134.624 45.2081 133.629 40.9275 132.181 37.1819C130.671 33.3066 128.659 30.0199 125.381 26.745C122.105 23.4683 118.827 21.4552 114.949 19.9524C111.194 18.4949 106.91 17.5016 100.638 17.2147C94.354 16.929 92.3534 16.8589 76.3486 16.8589H76.3669ZM71.0819 27.4755C72.6507 27.4731 74.401 27.4755 76.3669 27.4755C92.0971 27.4755 93.9611 27.532 100.173 27.8142C105.917 28.077 109.034 29.0367 111.111 29.8432C113.86 30.9107 115.821 32.1873 117.881 34.2498C119.943 36.3118 121.219 38.2753 122.29 41.0247C123.096 43.0985 124.057 46.2161 124.319 51.9601C124.601 58.1706 124.662 60.0358 124.662 75.7583C124.662 91.4808 124.601 93.3466 124.319 99.5565C124.056 105.3 123.096 108.418 122.29 110.492C121.222 113.242 119.943 115.2 117.881 117.26C115.819 119.322 113.862 120.598 111.111 121.666C109.037 122.476 105.917 123.434 100.173 123.696C93.9623 123.979 92.0971 124.04 76.3669 124.04C60.6361 124.04 58.7715 123.979 52.5616 123.696C46.8176 123.431 43.7 122.472 41.6216 121.665C38.8727 120.597 36.9086 119.321 34.8466 117.259C32.7847 115.197 31.5087 113.238 30.4382 110.488C29.6317 108.413 28.6708 105.296 28.4093 99.5518C28.1271 93.3413 28.0705 91.4761 28.0705 75.7436C28.0705 60.011 28.1271 58.1559 28.4093 51.9453C28.672 46.2014 29.6317 43.0837 30.4382 41.0071C31.5063 38.2576 32.7847 36.2941 34.8472 34.2321C36.9097 32.1702 38.8727 30.8936 41.6221 29.8237C43.6988 29.0137 46.8176 28.0564 52.5616 27.7924C57.9962 27.5468 60.1024 27.4731 71.0819 27.4608V27.4755ZM107.814 37.2573C103.911 37.2573 100.745 40.4209 100.745 44.3244C100.745 48.2274 103.911 51.3939 107.814 51.3939C111.717 51.3939 114.884 48.2274 114.884 44.3244C114.884 40.4215 111.717 37.2549 107.814 37.2549V37.2573ZM76.3669 45.5174C59.6593 45.5174 46.113 59.0637 46.113 75.7719C46.113 92.48 59.6593 106.02 76.3669 106.02C93.075 106.02 106.617 92.48 106.617 75.7719C106.617 59.0643 93.0739 45.5174 76.3657 45.5174H76.3669ZM76.3669 56.134C87.2121 56.134 96.0047 64.9255 96.0047 75.7719C96.0047 86.617 87.2121 95.4097 76.3669 95.4097C65.5217 95.4097 56.7296 86.617 56.7296 75.7719C56.7296 64.9255 65.5211 56.134 76.3669 56.134Z" fill="white"></path><defs><radialGradient id="paint0_radial_210_11941" cx="0" cy="0" r="1" gradientUnits="userSpaceOnUse" gradientTransform="translate(41.0145 162.795) rotate(-90) scale(149.47 139.018)"><stop stop-color="#FFDD55"></stop><stop offset="0.1" stop-color="#FFDD55"></stop><stop offset="0.5" stop-color="#FF543E"></stop><stop offset="1" stop-color="#C837AB"></stop></radialGradient><radialGradient id="paint1_radial_210_11941" cx="0" cy="0" r="1" gradientUnits="userSpaceOnUse" gradientTransform="translate(-24.3081 11.2273) rotate(78.681) scale(66.8137 275.408)"><stop stop-color="#3771C8"></stop><stop offset="0.128" stop-color="#3771C8"></stop><stop offset="1" stop-color="#6600FF" stop-opacity="0"></stop></radialGradient></defs></svg> 