<?xml version="1.0" encoding="UTF-8"?> <svg xmlns="http://www.w3.org/2000/svg" width="152" height="152" viewBox="0 0 152 152" fill="none"><rect x="3.10889" y="2.82251" width="145.816" height="145.816" rx="27.5" fill="#1EA1F1" stroke="white" stroke-width="5"></rect><path d="M76.0165 9.9165C58.5657 9.9165 41.8141 16.8547 29.4844 29.1926C17.142 41.5355 10.2067 58.2747 10.2031 75.7299C10.2031 93.1776 17.1444 109.929 29.4844 122.267C41.8141 134.605 58.5657 141.543 76.0165 141.543C93.4673 141.543 110.219 134.605 122.549 122.267C134.889 109.929 141.83 93.1776 141.83 75.7299C141.83 58.2821 134.889 41.5306 122.549 29.1926C110.219 16.8547 93.4673 9.9165 76.0165 9.9165Z" fill="#1EA1F1"></path><path d="M43.9947 74.7725C62.4401 66.738 74.737 61.4409 80.8855 58.8813C98.4611 51.5734 102.109 50.3041 104.491 50.2611C105.015 50.2527 106.181 50.3822 106.942 50.9975C107.575 51.5165 107.753 52.2183 107.842 52.7111C107.921 53.2034 108.03 54.3253 107.941 55.2012C106.992 65.2048 102.87 89.4804 100.774 100.685C99.8944 105.426 98.1448 107.015 96.4544 107.171C92.7772 107.509 89.9896 104.743 86.431 102.411C80.8658 98.7604 77.7223 96.4889 72.3152 92.9273C66.0679 88.8112 70.1207 86.5485 73.6794 82.8515C74.6085 81.8838 90.8002 67.16 91.1066 65.8246C91.1462 65.6575 91.1857 65.0348 90.8101 64.7066C90.4443 64.3774 89.9007 64.4901 89.5053 64.5791C88.9418 64.7056 80.0552 70.5852 62.8157 82.2169C60.295 83.9507 58.0116 84.7959 55.9555 84.7514C53.7017 84.703 49.3523 83.4743 46.1199 82.4245C42.1659 81.1365 39.0126 80.4554 39.2894 78.2678C39.4278 77.1291 40.9995 75.9636 43.9947 74.7725Z" fill="white"></path></svg> 