<?xml version="1.0" encoding="UTF-8"?> <svg xmlns="http://www.w3.org/2000/svg" width="152" height="152" viewBox="0 0 152 152" fill="none"><rect x="3.10889" y="2.86328" width="145.816" height="145.816" rx="27.5" fill="black" stroke="white" stroke-width="5"></rect><circle cx="76.0165" cy="75.7711" r="69.0365" fill="black"></circle><path d="M92.4703 53.6661C90.0258 50.8745 88.6784 47.29 88.6788 43.5793H77.6263V87.9324C77.5428 90.3332 76.5301 92.6077 74.8017 94.276C73.0733 95.9443 70.7645 96.8761 68.3622 96.8746C63.2831 96.8746 59.0624 92.7254 59.0624 87.5748C59.0624 81.4226 65 76.8084 71.1164 78.7041V67.4013C58.7762 65.7559 47.9741 75.3419 47.9741 87.5748C47.9741 99.4857 57.8463 107.963 68.3265 107.963C79.5578 107.963 88.6788 98.8419 88.6788 87.5748V65.0763C93.1606 68.2949 98.5415 70.0218 104.059 70.0124V58.9599C104.059 58.9599 97.3348 59.2818 92.4703 53.6661Z" fill="white"></path><g clip-path="url(#clip0_210_11955)"><path d="M92.4397 66.2559C96.8173 69.385 102.18 71.2262 107.972 71.2262V60.0812C106.876 60.0816 105.783 59.9672 104.71 59.7398V68.5125C98.9187 68.5125 93.5565 66.6716 89.1779 63.5427V86.2865C89.1779 97.6644 79.9538 106.887 68.5763 106.887C64.3311 106.887 60.3852 105.604 57.1074 103.403C60.8485 107.228 66.0657 109.6 71.8374 109.6C83.2159 109.6 92.4402 100.378 92.4402 88.9995V66.2559H92.4397ZM96.4639 55.0119C94.2266 52.5679 92.7575 49.4094 92.4397 45.9175V44.4841H89.3485C90.1266 48.9222 92.7809 52.7138 96.4639 55.0119ZM64.3037 94.6719C63.0536 93.0333 62.3779 91.0283 62.3811 88.9669C62.3811 83.7633 66.6001 79.544 71.8053 79.544C72.7752 79.5435 73.7394 79.6924 74.664 79.9855V68.5913C73.5835 68.4433 72.4932 68.3803 71.4034 68.4035V77.2721C70.4783 76.9789 69.5136 76.83 68.5433 76.8308C63.3383 76.8308 59.1195 81.0496 59.1195 86.254C59.1195 89.9339 61.2282 93.1198 64.3037 94.6719Z" fill="#FF004F"></path><path d="M89.1779 63.5424C93.5567 66.6714 98.9185 68.5123 104.71 68.5123V59.7396C101.477 59.0509 98.6155 57.3617 96.4637 55.0119C92.7805 52.7135 90.1266 48.922 89.3485 44.4841H81.229V88.999C81.2105 94.1886 76.9988 98.3905 71.8048 98.3905C68.7444 98.3905 66.0251 96.9318 64.3032 94.6716C61.2282 93.1198 59.1193 89.9337 59.1193 86.2542C59.1193 81.0503 63.338 76.831 68.543 76.831C69.5403 76.831 70.5015 76.9863 71.4031 77.2723V68.4037C60.2253 68.6347 51.2358 77.7673 51.2358 88.9993C51.2358 94.6062 53.4744 99.6891 57.1076 103.403C60.3854 105.604 64.3311 106.887 68.5765 106.887C79.9543 106.887 89.1781 97.6641 89.1781 86.2865L89.1779 63.5424Z" fill="white"></path><path d="M104.71 59.7394V57.3679C101.795 57.3721 98.9373 56.5557 96.4637 55.012C98.6533 57.4089 101.536 59.0618 104.71 59.7399M89.3483 44.484C89.2742 44.0599 89.2173 43.633 89.1777 43.2044V41.771H77.9666V86.2864C77.9488 91.4755 73.7371 95.6774 68.5429 95.6774C67.0704 95.6796 65.618 95.3353 64.303 94.6722C66.025 96.9319 68.7442 98.3904 71.8047 98.3904C76.9984 98.3904 81.2106 94.1889 81.2289 88.9993V44.4842L89.3483 44.484ZM71.4037 68.4035V65.8784C70.4668 65.7504 69.5224 65.6864 68.5769 65.6866C57.1979 65.6866 47.9741 74.9097 47.9741 86.2864C47.9741 93.4191 51.5992 99.7051 57.1079 103.403C53.4747 99.6889 51.2362 94.6058 51.2362 88.9991C51.2362 77.7674 60.2254 68.6345 71.4037 68.4035Z" fill="#00F2EA"></path></g><defs><clipPath id="clip0_210_11955"><rect width="60" height="68" fill="white" transform="translate(47.9741 41.771)"></rect></clipPath></defs></svg> 