<?xml version="1.0" encoding="UTF-8"?> <svg xmlns="http://www.w3.org/2000/svg" width="152" height="152" viewBox="0 0 152 152" fill="none"><rect x="3.01465" y="2.86328" width="145.816" height="145.816" rx="27.5" fill="black" stroke="white" stroke-width="5"></rect><path d="M75.9222 9.95776C58.4714 9.95776 41.7199 16.8959 29.3901 29.2339C17.0478 41.5768 10.1124 58.316 10.1089 75.7711C10.1089 93.2189 17.0501 109.97 29.3901 122.308C41.7199 134.646 58.4714 141.584 75.9222 141.584C93.3731 141.584 110.125 134.646 122.454 122.308C134.794 109.97 141.736 93.2189 141.736 75.7711C141.736 58.3234 134.794 41.5718 122.454 29.2339C110.125 16.8959 93.3731 9.95776 75.9222 9.95776Z" fill="black"></path><mask id="mask0_210_11641" style="mask-type:luminance" maskUnits="userSpaceOnUse" x="40" y="40" width="72" height="71"><path d="M40.8042 41.6528C40.8042 41.1005 41.2519 40.6528 41.8042 40.6528H110.041C110.593 40.6528 111.041 41.1005 111.041 41.6528V109.889C111.041 110.441 110.593 110.889 110.041 110.889H41.8042C41.2519 110.889 40.8042 110.441 40.8042 109.889V41.6528Z" fill="white"></path></mask><g mask="url(#mask0_210_11641)"><path d="M95.8164 44.2865C96.0063 44.0689 96.281 43.9441 96.5698 43.9441H104.687C105.545 43.9441 106.005 44.9548 105.44 45.6016L83.8912 70.2931C83.5801 70.6496 83.5614 71.1752 83.8463 71.5529L109.832 105.996C110.329 106.655 109.859 107.598 109.033 107.598H89.8623C89.5505 107.598 89.2566 107.453 89.0674 107.205L73.1236 86.3218C72.7397 85.8189 71.9912 85.7945 71.5753 86.2711L53.264 107.256C53.0741 107.473 52.7994 107.598 52.5105 107.598H44.3832C43.5248 107.598 43.0653 106.588 43.6296 105.941L66.8121 79.3662C67.1243 79.0082 67.1417 78.48 66.8536 78.1023L42.0295 45.5556C41.5275 44.8974 41.9968 43.9491 42.8246 43.9491H62.5306C62.8444 43.9491 63.1401 44.0965 63.329 44.3471L77.6189 63.2989C78.0012 63.8059 78.7531 63.8329 79.1707 63.3545L95.8164 44.2865ZM92.0274 100.743C92.2166 100.991 92.5106 101.137 92.8224 101.137H96.2905C97.1158 101.137 97.5858 100.193 97.0887 99.5342L60.0681 50.4674C59.8791 50.217 59.5835 50.0697 59.2698 50.0697H55.3872C54.5594 50.0697 54.09 51.0181 54.5922 51.6763L92.0274 100.743Z" fill="white"></path></g></svg> 